{"glyphs":{":":{"x_min":0,"x_max":164,"ha":164,"o":"m 84 390 b 95 392 106 402 106 415 b 105 425 105 435 106 445 b 107 454 96 461 88 460 b 78 460 68 453 66 443 b 63 431 62 419 61 407 b 60 395 74 388 84 390 z m 112 203 b 110 212 109 222 102 230 b 100 232 98 234 95 235 b 94 236 93 237 90 237 b 89 238 89 238 88 238 b 85 239 83 239 80 238 b 75 237 70 235 66 232 b 58 226 53 216 51 206 b 49 189 50 173 54 157 b 62 128 110 141 112 167 b 114 180 114 190 112 203 z"},"$":{"x_min":0,"x_max":540,"ha":540,"o":"m 432 182 b 393 226 349 265 304 302 b 299 305 294 310 289 314 b 293 406 301 498 311 590 b 350 580 383 552 408 521 b 427 498 475 523 462 551 b 433 608 380 647 320 662 b 326 703 332 745 339 786 b 343 812 305 812 301 789 b 294 749 288 708 282 668 b 260 669 238 667 217 662 b 106 635 31 526 54 413 b 74 314 164 254 241 196 b 239 117 240 39 243 -40 b 182 -17 134 40 143 110 b 146 136 107 136 104 113 b 91 18 156 -63 245 -86 b 247 -115 249 -144 252 -173 b 254 -201 296 -191 295 -166 b 293 -142 292 -118 291 -94 b 376 -100 474 -68 488 27 b 497 87 470 139 432 182 z m 248 348 b 193 396 142 456 170 528 b 186 567 228 592 272 595 b 262 513 254 430 248 348 z m 371 -32 b 346 -47 317 -52 289 -50 b 286 21 285 92 285 163 b 342 119 467 23 371 -32 z"},"?":{"x_min":0,"x_max":464,"ha":464,"o":"m 243 677 b 161 667 84 604 57 525 b 44 485 47 437 76 404 b 104 374 148 355 189 365 b 212 371 215 408 188 403 b 114 389 108 487 135 533 b 162 580 222 616 278 604 b 304 598 325 581 328 554 b 331 523 315 490 305 462 b 280 399 251 338 225 276 b 195 202 166 127 166 47 b 166 -17 264 -1 273 52 b 287 134 312 211 343 289 b 375 368 411 453 414 539 b 418 634 330 688 243 677 z m 234 -26 b 222 -19 210 -21 198 -28 b 183 -37 177 -56 173 -72 b 169 -86 167 -100 167 -114 b 166 -129 181 -142 195 -143 b 211 -143 229 -134 236 -119 b 243 -104 247 -90 249 -73 b 250 -57 250 -36 234 -26 z"},"<":{"x_min":0,"x_max":403,"ha":403,"o":"m 316 226 b 282 229 248 231 215 233 b 207 233 200 233 193 234 b 202 240 210 245 219 251 b 247 270 282 287 301 314 b 308 324 309 338 296 342 b 257 356 207 334 173 317 b 133 296 73 268 55 224 b 44 199 51 171 74 155 b 93 141 119 139 142 138 b 193 136 243 133 293 134 b 320 134 346 149 352 176 b 358 201 341 223 316 226 z m 141 236 b 138 237 139 237 141 236 z m 147 197 b 146 197 146 197 147 197 z"},"'":{"x_min":0,"x_max":202,"ha":202,"o":"m 122 688 b 99 690 81 674 74 653 b 66 631 59 608 55 584 b 52 562 46 535 55 515 b 63 496 86 495 100 509 b 100 509 101 510 102 511 b 105 515 109 519 111 524 b 119 537 122 552 126 566 b 135 593 143 620 151 647 b 157 667 141 687 122 688 z"},"=":{"x_min":0,"x_max":307,"ha":307,"o":"m 222 400 b 175 402 124 398 81 378 b 54 366 43 317 82 315 b 122 313 161 316 201 313 b 226 312 250 329 256 353 b 261 376 246 398 222 400 z m 213 278 b 164 276 93 276 56 240 b 48 233 48 219 57 213 b 75 199 103 200 125 200 b 151 200 178 202 205 204 b 245 207 260 279 213 278 z"},"a":{"x_min":0,"x_max":469,"ha":469,"o":"m 459 212 b 448 162 440 109 419 63 b 416 55 411 39 404 34 b 399 31 400 30 394 35 b 392 37 390 39 389 41 b 378 57 374 79 371 97 b 362 145 363 196 364 244 b 365 298 372 353 365 407 b 358 459 306 460 274 434 b 231 468 166 477 116 452 b 32 411 -12 322 -24 232 b -30 187 -31 142 -22 96 b -15 55 3 8 43 -11 b 127 -51 183 46 206 110 b 218 146 226 182 234 218 b 234 209 234 199 234 190 b 237 123 246 46 299 -1 b 345 -42 414 -26 445 24 b 478 78 486 148 497 209 b 502 235 463 234 459 212 z m 190 204 b 182 172 174 140 162 109 b 157 95 151 81 143 68 b 138 58 125 36 116 37 b 98 38 90 80 87 94 b 80 125 80 156 82 188 b 84 219 89 250 98 281 b 102 293 107 304 113 314 b 120 327 126 337 132 345 b 147 363 165 386 192 380 b 207 377 220 368 231 357 b 216 307 202 256 190 204 z"},"L":{"x_min":0,"x_max":346,"ha":346,"o":"m 571 -89 b 518 -35 431 -60 366 -69 b 328 -75 290 -81 252 -82 b 266 -45 263 -6 262 34 b 260 73 257 112 255 151 b 250 230 246 309 244 388 b 242 467 243 546 247 625 b 250 705 258 784 260 864 b 261 893 233 912 206 910 b 178 909 148 888 142 858 b 110 698 110 529 115 366 b 117 286 123 205 134 126 b 139 85 145 43 155 3 b 161 -26 168 -54 183 -79 b 154 -76 124 -72 95 -66 b 52 -59 28 -132 78 -138 b 120 -143 161 -140 202 -134 b 245 -128 287 -121 330 -115 b 370 -109 410 -102 450 -97 b 482 -93 516 -93 541 -117 b 555 -131 585 -104 571 -89 z"},"3":{"x_min":0,"x_max":560,"ha":560,"o":"m 92 465 b 81 491 108 517 126 532 b 145 548 167 559 190 567 b 214 576 240 580 265 581 b 290 582 327 582 346 562 b 383 522 326 479 295 457 b 253 427 209 408 160 388 b 136 379 117 354 118 328 b 118 305 138 283 163 283 b 224 282 278 265 325 223 b 362 188 389 135 392 84 b 396 32 384 -22 344 -57 b 333 -68 310 -80 288 -85 b 264 -90 240 -89 216 -80 b 145 -52 204 52 232 91 b 245 109 249 134 226 146 b 204 158 178 145 167 125 b 145 85 119 48 107 2 b 97 -37 97 -87 125 -120 b 177 -181 278 -179 347 -152 b 427 -121 488 -52 505 34 b 521 117 496 207 444 273 b 412 314 372 345 326 365 b 348 382 368 401 386 422 b 410 452 430 491 427 531 b 423 568 398 589 367 604 b 304 634 224 624 161 596 b 113 574 28 513 55 450 b 65 428 101 445 92 465 z"},";":{"x_min":0,"x_max":206,"ha":206,"o":"m 134 455 b 122 453 113 443 113 431 b 112 418 110 404 107 391 b 100 362 145 362 150 388 b 154 405 156 421 156 438 b 156 450 144 457 134 455 z m 110 254 b 86 226 70 193 54 159 b 33 113 101 95 120 136 b 137 171 150 208 146 247 b 143 265 121 267 110 254 z"},"J":{"x_min":0,"x_max":700,"ha":700,"o":"m 390 849 b 340 843 289 835 238 828 b 214 824 189 821 164 818 b 149 815 94 800 88 820 b 81 842 44 825 51 804 b 65 755 138 777 173 781 b 230 789 286 797 342 804 b 383 810 425 814 467 818 b 467 816 468 815 469 814 b 468 811 468 807 468 804 b 467 795 466 785 465 775 b 463 757 465 738 466 720 b 467 687 470 653 473 620 b 447 603 423 585 399 566 b 344 520 294 468 251 410 b 166 295 107 147 151 3 b 172 -63 216 -124 282 -149 b 358 -178 437 -152 493 -96 b 552 -37 576 48 590 128 b 604 212 606 300 601 385 b 596 468 586 552 573 635 b 580 637 587 640 594 642 b 608 645 623 659 617 675 b 612 691 592 691 580 683 b 576 680 571 677 567 674 b 560 719 554 766 536 808 b 534 813 532 818 530 822 b 582 825 635 825 687 820 b 711 818 724 858 696 860 b 594 868 492 861 390 849 z m 484 179 b 477 116 468 48 440 -10 b 418 -56 380 -89 325 -82 b 267 -75 221 -30 199 23 b 150 143 206 281 276 379 b 316 435 363 487 416 531 b 435 547 455 562 476 576 b 480 516 486 455 488 395 b 490 323 492 251 484 179 z"},"V":{"x_min":0,"x_max":606,"ha":606,"o":"m 362 -22 b 403 6 416 52 433 96 b 473 202 499 311 525 422 b 554 545 583 669 636 785 b 647 808 613 817 603 796 b 515 609 487 401 425 205 b 410 157 393 109 369 65 b 364 57 360 48 353 41 b 346 34 350 37 344 37 b 328 38 313 63 306 75 b 280 118 268 168 256 216 b 243 266 234 317 226 368 b 206 495 196 622 176 749 b 164 828 48 800 50 727 b 54 600 72 472 95 347 b 105 289 119 231 136 174 b 144 147 155 120 167 94 b 179 68 192 40 211 18 b 247 -25 308 -58 362 -22 z"},"\"":{"x_min":0,"x_max":331,"ha":331,"o":"m 78 645 b 61 601 52 555 50 509 b 49 487 73 474 93 477 b 116 481 132 500 134 523 b 137 562 147 600 148 640 b 148 678 89 675 78 645 z m 249 678 b 225 680 207 663 199 642 b 188 611 181 578 180 545 b 180 521 187 476 223 490 b 249 501 255 532 261 557 b 268 583 273 609 280 636 b 285 657 270 676 249 678 z"},"7":{"x_min":0,"x_max":463,"ha":463,"o":"m 69 585 b 105 589 136 605 169 618 b 198 630 236 642 264 622 b 291 603 286 554 284 526 b 282 487 277 450 271 412 b 264 357 253 303 242 250 b 223 246 205 243 187 238 b 162 233 160 193 188 199 b 203 203 218 206 233 209 b 214 118 194 28 183 -64 b 173 -140 280 -138 295 -73 b 310 -4 320 66 331 136 b 335 166 340 195 344 224 b 356 225 369 226 377 223 b 392 215 411 231 413 246 b 415 263 396 274 381 267 b 373 262 361 262 350 262 b 354 290 357 318 360 346 b 367 416 370 486 358 554 b 348 606 313 658 259 670 b 189 684 134 630 68 622 b 45 619 43 583 69 585 z"},"S":{"x_min":0,"x_max":595,"ha":595,"o":"m 539 126 b 523 193 475 250 430 300 b 383 351 333 397 283 443 b 241 481 196 528 177 582 b 167 610 158 640 167 670 b 172 691 186 710 207 722 b 227 733 254 737 278 731 b 309 723 331 702 354 682 b 378 661 426 696 413 725 b 389 779 329 808 273 813 b 213 819 156 792 113 752 b 67 708 46 640 51 578 b 56 511 91 450 135 402 b 221 308 328 235 403 130 b 418 108 432 84 434 57 b 435 45 435 32 431 22 b 427 13 422 7 417 2 b 406 -8 386 -19 369 -23 b 343 -30 314 -32 287 -28 b 228 -18 184 36 166 90 b 146 150 150 208 190 258 b 207 280 177 299 161 279 b 90 195 80 64 139 -29 b 210 -140 383 -150 480 -67 b 536 -18 556 53 539 126 z"},"}":{"x_min":0,"x_max":467,"ha":467,"o":"m 386 360 b 352 377 329 410 310 443 b 287 485 268 531 247 575 b 228 615 210 662 177 693 b 148 721 107 733 68 724 b 46 719 42 686 69 688 b 106 691 123 635 132 608 b 147 562 161 516 176 471 b 197 407 225 342 273 296 b 231 234 219 149 210 79 b 204 28 197 -23 189 -74 b 185 -95 183 -119 175 -139 b 167 -156 164 -152 143 -154 b 108 -157 91 -201 116 -224 b 138 -245 173 -241 199 -230 b 229 -219 252 -195 268 -168 b 297 -119 306 -60 314 -5 b 321 51 326 108 338 163 b 344 187 351 212 359 229 b 361 234 364 238 366 243 b 369 248 364 241 370 248 b 370 248 379 258 377 257 b 381 260 385 263 390 265 b 427 289 425 342 386 360 z"},"Z":{"x_min":0,"x_max":421,"ha":421,"o":"m 342 622 b 346 662 348 706 331 743 b 288 837 171 806 95 780 b 72 772 81 739 105 747 b 145 760 197 776 238 766 b 258 761 274 752 274 730 b 274 710 266 689 261 669 b 240 587 210 505 177 426 b 173 415 168 404 163 392 b 148 390 134 387 120 383 b 100 378 96 346 121 350 b 129 351 137 353 146 354 b 120 297 94 241 73 183 b 48 115 28 -2 102 -48 b 132 -67 171 -76 207 -76 b 256 -77 303 -61 351 -55 b 377 -52 379 -11 350 -15 b 295 -22 176 -63 158 21 b 151 55 166 98 176 131 b 188 170 203 207 219 245 b 237 286 255 327 271 368 b 283 369 296 370 309 370 b 320 371 331 377 334 388 b 336 398 329 410 318 409 b 307 409 296 408 285 408 b 296 436 306 465 314 494 b 327 535 337 579 342 622 z"},"x":{"x_min":0,"x_max":325,"ha":325,"o":"m 321 211 b 299 163 280 106 244 66 b 238 60 224 43 213 43 b 207 43 198 52 193 56 b 177 69 166 88 157 106 b 142 139 129 173 120 207 b 152 263 186 316 224 368 b 241 391 209 413 193 391 b 163 349 134 306 107 262 b 98 316 95 370 84 424 b 78 450 46 457 24 450 b -2 442 -19 421 -21 393 b -26 323 -16 252 3 184 b 9 161 17 138 28 116 b 11 82 -4 48 -18 14 b -29 -11 7 -21 17 1 b 27 26 38 51 50 75 b 64 54 81 34 101 18 b 151 -24 218 -11 263 32 b 309 75 331 142 355 199 b 366 224 330 233 321 211 z"},")":{"x_min":0,"x_max":412,"ha":412,"o":"m 355 344 b 345 427 328 514 286 587 b 248 656 170 725 87 688 b 69 680 69 646 93 653 b 116 659 145 624 158 608 b 175 587 189 563 200 538 b 225 476 234 408 241 342 b 248 274 249 205 243 137 b 239 87 226 25 209 -18 b 202 -34 195 -49 186 -64 b 177 -79 176 -82 165 -96 b 160 -102 154 -108 149 -113 b 141 -122 145 -118 136 -125 b 128 -131 122 -135 113 -135 b 87 -134 62 -149 53 -173 b 46 -194 52 -223 77 -230 b 168 -253 239 -184 285 -113 b 324 -50 346 24 355 98 b 365 180 364 262 355 344 z"},"&":{"x_min":0,"x_max":599,"ha":599,"o":"m 506 183 b 468 201 425 193 390 173 b 370 162 385 129 407 141 b 435 157 488 163 505 127 b 519 95 485 54 465 32 b 419 -19 353 -46 284 -39 b 258 -36 231 -23 220 2 b 206 32 228 65 245 88 b 265 117 288 144 314 168 b 321 175 339 189 350 198 b 366 209 376 216 390 222 b 413 233 433 257 433 284 b 432 307 411 331 387 330 b 328 328 261 319 213 346 b 191 358 176 375 170 398 b 167 407 166 417 170 429 b 173 441 179 451 185 462 b 195 479 212 497 231 509 b 251 524 273 531 297 534 b 320 536 347 534 366 520 b 387 502 391 470 394 445 b 399 404 454 421 456 455 b 461 521 437 579 370 600 b 313 617 247 606 194 581 b 131 551 78 498 57 431 b 35 361 68 287 128 248 b 158 229 189 219 222 213 b 202 192 184 169 168 145 b 120 76 90 -26 172 -84 b 242 -133 331 -110 399 -69 b 458 -35 522 20 544 86 b 557 126 544 164 506 183 z"},"_":{"x_min":0,"x_max":523,"ha":523,"o":"m 440 -41 b 409 -41 379 -38 349 -39 b 318 -40 286 -42 255 -44 b 225 -46 196 -48 166 -49 b 137 -50 100 -45 73 -57 b 54 -66 39 -94 60 -111 b 83 -127 121 -125 148 -125 b 178 -125 208 -124 238 -123 b 297 -121 361 -116 419 -126 b 472 -135 498 -42 440 -41 z"},"v":{"x_min":0,"x_max":439,"ha":439,"o":"m 451 230 b 404 207 357 215 318 240 b 331 288 340 337 343 387 b 345 419 345 450 341 482 b 338 509 334 541 316 562 b 272 613 219 554 200 512 b 178 462 178 405 191 352 b 203 303 230 255 269 222 b 268 216 266 211 264 206 b 249 160 231 111 203 70 b 200 66 194 55 188 53 b 192 55 179 60 177 63 b 162 78 153 101 146 119 b 105 227 95 342 71 454 b 66 482 29 490 6 483 b -20 475 -46 450 -43 420 b -38 351 -24 281 -6 215 b 11 153 32 81 79 35 b 98 16 123 -2 151 -5 b 177 -7 208 11 226 30 b 245 50 258 77 270 102 b 284 132 295 164 305 195 b 305 196 306 197 306 198 b 355 174 413 171 462 196 b 484 207 475 242 451 230 z m 283 270 b 266 288 252 311 242 334 b 227 374 220 420 227 463 b 231 483 237 502 248 520 b 253 528 261 543 273 541 b 285 539 291 520 293 511 b 314 432 304 348 283 270 z"},"O":{"x_min":0,"x_max":630,"ha":630,"o":"m 579 428 b 582 579 550 762 403 838 b 331 875 245 874 179 825 b 125 785 94 723 95 658 b 94 657 94 657 94 656 b 53 488 32 308 71 138 b 87 66 116 -22 181 -65 b 257 -115 357 -91 421 -32 b 483 24 515 105 539 183 b 564 262 578 346 579 428 z m 465 428 b 462 362 451 297 433 233 b 425 202 414 171 402 142 b 396 129 390 116 384 104 b 380 97 376 90 372 83 b 370 80 369 78 367 76 b 367 75 364 72 363 71 b 358 65 353 58 348 53 b 346 51 344 49 343 48 b 342 47 342 47 341 46 b 338 44 335 42 333 40 b 332 40 330 38 329 37 b 327 36 325 35 325 35 b 320 33 315 31 309 29 b 302 26 308 29 309 29 b 306 28 303 28 300 27 b 298 27 297 27 296 26 b 294 26 292 27 290 27 b 278 27 273 29 264 35 b 248 46 230 71 223 89 b 210 118 200 149 192 181 b 154 335 183 493 207 647 b 214 696 174 712 139 702 b 150 738 173 769 209 785 b 260 808 316 795 360 763 b 459 687 469 543 465 428 z"},"(":{"x_min":0,"x_max":446,"ha":446,"o":"m 352 -141 b 298 -160 249 -111 226 -69 b 196 -12 179 54 167 116 b 142 244 153 381 199 503 b 213 539 231 576 252 608 b 261 622 271 635 283 646 b 288 651 294 656 300 661 b 302 662 304 663 306 664 b 309 666 312 668 315 669 b 317 672 319 672 319 669 b 339 667 357 702 334 707 b 316 711 304 717 285 715 b 263 712 244 702 226 689 b 189 664 161 624 139 586 b 99 513 71 432 59 350 b 47 267 47 183 60 100 b 74 19 97 -67 144 -137 b 195 -212 302 -264 381 -198 b 412 -172 393 -127 352 -141 z"},"C":{"x_min":0,"x_max":630,"ha":630,"o":"m 543 303 b 531 200 491 90 412 18 b 378 -13 330 -33 286 -11 b 246 10 221 48 207 89 b 172 185 169 300 184 400 b 200 504 231 605 282 696 b 302 733 341 785 390 780 b 451 774 460 686 465 640 b 468 611 512 622 511 648 b 507 709 499 771 453 816 b 402 864 334 854 279 820 b 222 786 179 726 147 669 b 114 609 88 543 73 476 b 42 344 39 198 83 69 b 104 5 145 -55 207 -86 b 269 -116 340 -106 398 -71 b 460 -34 501 32 528 96 b 557 162 575 232 579 304 b 581 326 545 321 543 303 z"},"W":{"x_min":0,"x_max":856,"ha":856,"o":"m 375 113 b 392 178 403 244 415 309 b 423 248 435 187 453 128 b 480 41 529 -63 637 -54 b 738 -46 758 72 771 152 b 787 252 792 353 791 454 b 790 511 789 569 791 627 b 792 655 793 682 794 710 b 795 735 789 771 803 792 b 815 810 785 823 774 807 b 752 776 756 732 754 695 b 751 648 749 601 743 554 b 732 463 723 371 711 279 b 706 235 700 190 692 146 b 685 112 680 69 660 39 b 647 18 627 28 612 47 b 587 76 577 115 567 151 b 540 246 535 343 519 440 b 509 506 420 489 408 435 b 407 433 406 432 405 429 b 382 349 368 267 349 186 b 340 144 329 103 313 63 b 301 36 283 -11 249 -16 b 219 -21 201 30 194 52 b 183 88 177 127 173 165 b 164 250 165 336 170 422 b 175 520 186 618 188 716 b 188 747 157 764 130 760 b 97 755 77 728 74 697 b 58 502 30 300 73 106 b 90 29 128 -85 226 -80 b 328 -76 354 34 375 113 z"},"A":{"x_min":0,"x_max":826,"ha":826,"o":"m 761 445 b 746 446 731 447 715 448 b 711 503 706 558 698 613 b 689 683 679 755 650 820 b 622 883 575 942 498 926 b 425 912 378 847 341 789 b 269 676 233 539 212 408 b 212 404 211 401 211 398 b 195 395 180 393 165 392 b 136 388 107 384 79 395 b 58 403 37 369 60 360 b 105 342 158 352 205 360 b 196 292 190 224 189 156 b 189 116 189 74 195 34 b 198 13 201 -7 204 -27 b 207 -48 215 -67 219 -87 b 223 -109 255 -94 255 -77 b 255 -60 260 -43 261 -26 b 262 -9 262 8 263 24 b 266 61 268 97 270 133 b 273 198 279 263 289 328 b 291 343 293 358 295 373 b 329 378 362 383 396 388 b 464 398 533 406 603 409 b 603 399 603 389 603 379 b 608 225 609 71 615 -84 b 617 -117 649 -139 681 -133 b 714 -126 744 -98 743 -62 b 739 89 730 240 720 390 b 719 396 719 402 718 408 b 730 408 741 407 752 406 b 775 404 788 442 761 445 z m 419 428 b 380 423 341 417 302 411 b 319 506 344 600 385 686 b 407 734 436 789 477 824 b 520 859 547 806 560 770 b 580 711 587 649 592 587 b 597 541 599 494 601 447 b 540 444 480 437 419 428 z"},"f":{"x_min":0,"x_max":328,"ha":328,"o":"m 333 235 b 270 189 205 146 139 105 b 132 140 128 175 125 210 b 200 388 275 566 322 754 b 334 801 346 849 349 897 b 352 936 349 985 318 1013 b 286 1042 240 1023 207 1005 b 165 981 134 941 111 899 b 64 816 34 721 18 627 b 1 533 -9 436 -10 340 b -11 247 -5 153 20 63 b 32 18 50 -24 72 -65 b 82 -84 93 -102 106 -119 b 122 -140 139 -154 162 -166 b 198 -184 250 -203 284 -172 b 316 -144 315 -93 307 -55 b 290 16 234 65 166 79 b 230 119 293 161 354 206 b 375 221 355 250 333 235 z m 122 377 b 129 530 145 682 194 828 b 204 857 217 886 234 916 b 241 929 250 942 259 954 b 266 964 274 978 286 968 b 315 944 306 887 301 856 b 294 816 286 777 276 738 b 238 588 181 443 121 300 b 121 326 121 352 122 377 z m 264 -66 b 269 -82 278 -163 241 -146 b 227 -139 219 -120 213 -107 b 207 -89 196 -74 189 -57 b 175 -25 163 7 154 40 b 206 29 250 -11 264 -66 z"},"Q":{"x_min":0,"x_max":654,"ha":654,"o":"m 384 -110 b 398 -112 403 -114 413 -124 b 436 -144 467 -111 462 -88 b 457 -66 436 -59 414 -57 b 425 -50 436 -42 446 -32 b 508 24 539 105 564 183 b 589 262 603 346 604 428 b 607 579 575 762 428 838 b 356 875 270 874 203 825 b 150 785 118 723 119 658 b 119 657 119 657 119 656 b 77 488 56 308 96 138 b 112 66 141 -22 206 -65 b 220 -74 234 -81 249 -85 b 219 -93 190 -102 161 -112 b 126 -124 88 -137 58 -160 b 47 -170 46 -191 64 -192 b 79 -194 90 -190 103 -182 b 109 -178 111 -174 112 -169 b 128 -162 145 -156 161 -151 b 191 -141 221 -132 251 -125 b 279 -118 308 -111 337 -109 b 352 -108 368 -108 384 -110 z m 217 181 b 179 335 208 493 232 647 b 239 696 199 712 164 702 b 174 738 198 769 234 785 b 285 808 341 795 384 763 b 484 687 494 543 489 428 b 487 362 476 297 458 233 b 449 202 439 171 426 142 b 421 129 415 116 408 104 b 405 97 401 90 396 83 b 395 81 394 78 392 76 b 392 75 389 72 388 71 b 383 65 378 58 372 53 b 371 51 369 49 368 48 b 367 47 366 47 365 46 b 363 44 360 42 357 40 b 357 40 355 38 354 37 b 352 36 350 35 350 35 b 345 33 339 31 334 29 b 327 26 333 29 334 29 b 331 28 328 28 325 27 b 323 27 322 27 321 26 b 319 26 317 27 314 27 b 303 27 298 29 289 35 b 273 46 255 71 248 89 b 235 118 225 149 217 181 z"},"w":{"x_min":0,"x_max":602,"ha":602,"o":"m 624 230 b 588 232 551 250 520 275 b 525 305 527 336 529 366 b 531 411 534 465 510 505 b 487 545 443 532 422 498 b 399 462 394 417 403 376 b 412 331 439 289 476 256 b 475 250 474 245 473 239 b 467 202 459 166 446 131 b 440 115 431 99 422 85 b 418 77 407 59 399 57 b 398 57 398 58 398 58 b 395 60 393 62 390 65 b 386 71 383 77 380 83 b 372 100 366 117 362 135 b 353 173 352 212 348 250 b 341 318 242 292 242 233 b 227 185 214 135 193 89 b 185 70 174 42 156 31 b 138 20 124 45 119 59 b 99 106 97 160 96 211 b 96 270 100 329 101 388 b 101 417 71 435 44 430 b 12 425 -7 399 -10 369 b -17 297 -20 224 -11 152 b -4 87 13 3 83 -22 b 174 -53 222 38 251 128 b 254 112 258 97 263 82 b 279 35 309 -20 365 -24 b 421 -27 455 20 471 67 b 486 114 500 161 509 209 b 511 216 512 222 513 228 b 545 208 580 196 616 194 b 637 193 649 228 624 230 z m 487 355 b 486 340 485 325 483 310 b 476 318 470 327 465 335 b 447 364 437 398 441 433 b 442 448 446 463 454 477 b 457 484 462 492 470 487 b 476 483 479 469 481 462 b 491 428 488 390 487 355 z"},"-":{"x_min":0,"x_max":381,"ha":381,"o":"m 296 300 b 256 301 216 298 177 294 b 139 290 96 289 63 267 b 45 256 46 231 65 221 b 94 207 136 213 168 213 b 204 213 240 213 276 215 b 300 216 324 229 330 254 b 335 276 320 299 296 300 z"},"E":{"x_min":0,"x_max":734,"ha":734,"o":"m 660 7 b 593 -16 520 -45 448 -27 b 421 -20 394 -10 377 13 b 360 35 352 60 344 86 b 324 153 318 223 315 292 b 372 304 431 314 489 323 b 532 330 534 400 487 390 b 428 377 370 361 313 344 b 311 405 313 466 317 527 b 321 597 327 666 331 735 b 332 735 333 736 334 736 b 377 745 421 754 466 755 b 499 755 542 754 562 725 b 585 689 649 736 623 769 b 595 805 550 816 506 817 b 453 818 400 808 348 794 b 343 793 338 792 334 790 b 333 852 233 836 225 783 b 223 773 222 764 220 754 b 213 751 206 749 198 746 b 151 729 101 715 59 687 b 38 672 58 644 80 658 b 115 682 161 693 202 704 b 206 705 210 706 214 707 b 198 575 192 440 199 307 b 161 294 123 281 85 267 b 62 258 71 224 96 233 b 131 245 166 255 201 265 b 211 134 239 -94 414 -88 b 457 -87 500 -77 541 -67 b 585 -57 628 -41 671 -26 b 694 -17 685 15 660 7 z"},"s":{"x_min":0,"x_max":303,"ha":303,"o":"m 326 247 b 308 249 293 242 277 235 b 256 225 234 214 214 203 b 203 198 193 192 183 186 b 162 211 140 235 123 258 b 101 288 74 326 77 366 b 79 379 84 400 95 408 b 110 422 136 418 146 401 b 159 379 195 406 182 427 b 147 485 63 460 21 424 b -10 398 -21 352 -21 313 b -21 274 -7 234 14 201 b 35 168 63 139 90 110 b 56 66 30 2 76 -38 b 134 -90 227 -25 238 40 b 246 84 229 122 205 158 b 220 167 236 175 252 183 b 270 192 297 212 317 210 b 339 208 352 244 326 247 z m 163 -3 b 154 -16 132 -19 118 -14 b 81 1 94 48 110 74 b 112 77 114 80 116 83 b 130 67 144 51 156 33 b 163 23 172 8 163 -3 z"},">":{"x_min":0,"x_max":332,"ha":332,"o":"m 281 263 b 278 303 233 315 202 326 b 184 332 165 338 147 343 b 136 345 126 348 115 348 b 103 350 91 348 79 351 b 58 356 37 327 60 316 b 73 310 82 299 94 292 b 106 284 119 278 133 272 b 145 266 157 260 169 255 b 173 253 176 251 180 250 b 172 246 164 242 156 239 b 129 227 99 219 74 202 b 34 176 53 119 100 124 b 140 128 180 156 214 177 b 244 196 285 221 281 263 z"},"l":{"x_min":0,"x_max":295,"ha":295,"o":"m 295 216 b 276 173 257 130 231 92 b 218 72 203 53 185 38 b 178 32 170 27 166 29 b 161 32 150 51 147 56 b 138 75 137 99 132 119 b 126 144 124 169 121 194 b 116 247 115 299 115 352 b 115 378 115 403 117 428 b 177 510 223 604 247 703 b 257 744 275 818 227 841 b 168 870 108 805 80 762 b 8 653 -6 507 -9 379 b -10 313 -7 247 3 182 b 12 121 27 54 71 9 b 84 -4 99 -17 117 -19 b 133 -21 147 -17 161 -14 b 192 -5 214 12 235 36 b 277 85 302 145 326 204 b 335 227 303 235 295 216 z m 150 654 b 160 698 174 740 194 781 b 195 784 199 795 204 795 b 212 795 214 780 214 774 b 217 749 210 723 204 699 b 187 632 160 567 124 507 b 130 556 139 605 150 654 z"},"8":{"x_min":0,"x_max":478,"ha":478,"o":"m 158 266 b 142 242 131 215 123 192 b 103 132 97 57 121 -3 b 143 -60 194 -100 256 -97 b 318 -94 367 -52 394 2 b 424 62 414 129 387 187 b 404 256 420 326 426 397 b 431 461 427 529 391 584 b 317 698 145 656 79 556 b 36 492 44 418 82 354 b 101 321 129 293 158 266 z m 335 -14 b 320 -40 288 -56 258 -57 b 172 -59 146 36 149 105 b 150 139 157 174 170 206 b 175 218 181 230 188 241 b 199 231 211 222 222 212 b 267 173 317 127 338 69 b 347 44 350 11 335 -14 z m 161 512 b 163 527 174 551 187 567 b 204 589 234 600 260 602 b 349 609 383 514 384 441 b 385 373 373 306 358 239 b 325 284 282 320 242 359 b 203 397 155 452 161 512 z"},"\\":{"x_min":0,"x_max":439,"ha":439,"o":"m 388 -137 b 371 -69 342 -4 318 61 b 295 125 271 189 248 254 b 224 318 201 382 177 446 b 165 477 153 508 140 539 b 134 554 127 569 119 584 b 115 593 111 602 107 610 b 102 619 94 626 91 636 b 82 660 44 642 51 619 b 53 609 51 600 52 590 b 53 581 55 571 57 562 b 59 545 63 529 66 512 b 75 478 83 444 92 410 b 110 344 130 278 151 213 b 171 147 193 82 215 17 b 237 -48 256 -117 287 -179 b 315 -236 402 -195 388 -137 z"},"e":{"x_min":0,"x_max":312,"ha":312,"o":"m 312 216 b 279 159 250 93 196 52 b 184 43 167 32 152 38 b 139 43 131 53 125 64 b 112 88 105 119 101 146 b 96 177 96 208 98 239 b 160 283 215 357 215 434 b 216 471 188 517 148 520 b 94 523 50 472 26 430 b 4 391 -9 344 -15 299 b -21 252 -27 202 -19 154 b -6 67 50 -42 155 -7 b 203 8 235 33 266 72 b 298 113 329 160 345 209 b 351 231 321 230 312 216 z m 111 335 b 117 365 125 393 138 419 b 141 425 143 432 147 437 b 148 438 151 442 153 444 b 154 445 156 446 156 447 b 158 446 159 446 159 445 b 162 443 164 440 165 437 b 179 407 153 361 138 336 b 128 321 117 307 105 295 b 107 308 109 322 111 335 z"},"b":{"x_min":0,"x_max":534,"ha":534,"o":"m 538 207 b 507 179 470 165 431 154 b 439 211 436 270 427 320 b 417 373 392 431 340 455 b 292 477 250 448 222 408 b 184 351 164 282 145 217 b 139 197 134 178 128 158 b 128 160 128 162 128 165 b 123 219 120 274 118 328 b 118 330 118 331 118 333 b 168 417 215 504 250 596 b 272 651 293 709 300 769 b 305 815 301 870 270 907 b 234 948 177 955 132 924 b 80 889 53 826 35 768 b 17 710 10 649 3 589 b -5 524 -8 459 -8 393 b -8 322 -5 252 3 181 b 7 144 12 107 20 70 b 23 54 26 39 31 23 b 37 5 46 -10 54 -28 b 73 -70 132 -45 133 -5 b 134 9 136 21 137 35 b 159 121 179 207 209 291 b 224 332 242 388 279 415 b 326 450 326 363 327 337 b 331 267 326 192 305 126 b 283 119 262 111 242 99 b 204 77 150 29 175 -20 b 199 -67 281 -58 319 -36 b 376 -3 408 53 423 116 b 472 127 520 143 559 178 b 578 196 558 225 538 207 z m 131 659 b 135 708 142 757 155 804 b 160 823 164 845 176 861 b 185 873 203 886 219 881 b 259 866 260 801 256 767 b 251 713 232 659 213 609 b 186 540 153 474 117 409 b 117 493 122 576 131 659 z m 284 73 b 278 60 234 -25 214 6 b 202 24 232 48 244 57 b 258 67 272 75 288 81 b 286 78 285 75 284 73 z"},"%":{"x_min":0,"x_max":640,"ha":640,"o":"m 565 605 b 576 628 572 656 548 668 b 526 680 493 673 477 651 b 431 588 393 518 356 448 b 321 382 286 315 255 247 b 223 177 193 107 166 35 b 140 -33 107 -106 104 -180 b 103 -208 143 -209 157 -191 b 200 -131 226 -59 257 8 b 289 76 320 145 354 212 b 387 278 420 344 456 409 b 492 475 532 538 565 605 z m 266 402 b 268 439 263 481 243 512 b 224 541 187 558 154 545 b 129 536 112 518 100 496 b 81 492 65 477 60 458 b 41 394 41 260 129 247 b 215 235 261 332 266 402 z m 140 481 b 147 491 157 498 170 496 b 212 490 206 413 200 385 b 197 373 175 305 154 323 b 141 334 140 366 139 380 b 137 405 140 428 145 452 b 148 462 145 473 140 481 z m 566 192 b 547 221 511 237 477 225 b 453 216 435 197 424 175 b 405 172 389 157 383 138 b 365 73 364 -60 453 -73 b 538 -85 585 11 589 82 b 591 118 586 160 566 192 z m 523 65 b 520 52 498 -16 477 3 b 465 13 463 45 462 60 b 460 84 463 108 468 131 b 471 142 469 152 463 160 b 470 171 480 178 494 176 b 536 170 529 93 523 65 z"},"m":{"x_min":0,"x_max":661,"ha":661,"o":"m 654 206 b 638 174 623 143 606 112 b 600 101 576 51 557 44 b 548 70 546 96 544 125 b 541 162 538 199 535 236 b 532 275 528 314 520 352 b 513 387 500 422 469 442 b 444 458 420 460 397 438 b 375 416 361 383 350 354 b 340 329 331 304 324 278 b 320 310 313 341 302 370 b 291 402 272 424 241 438 b 216 450 192 440 175 419 b 156 396 146 364 135 336 b 123 305 114 274 105 243 b 105 299 106 355 102 411 b 98 474 2 461 -6 406 b -16 331 -14 256 -9 181 b -7 145 -2 110 3 74 b 8 39 15 2 47 -20 b 66 -33 97 -19 101 4 b 104 19 106 34 107 49 b 124 154 143 259 185 356 b 188 364 212 422 220 396 b 224 385 222 369 222 358 b 222 344 221 329 220 315 b 216 250 211 185 212 120 b 212 90 242 72 271 76 b 303 82 325 108 327 140 b 327 140 327 140 327 140 b 342 207 359 274 384 338 b 390 353 397 367 404 381 b 408 389 413 396 418 403 b 421 408 427 419 430 411 b 432 406 428 396 428 391 b 426 381 425 371 425 361 b 425 342 425 323 424 303 b 424 233 415 154 437 86 b 455 29 511 -37 575 6 b 603 25 620 56 636 85 b 656 120 673 156 690 193 b 702 218 664 228 654 206 z"},"#":{"x_min":0,"x_max":699,"ha":699,"o":"m 623 289 b 648 287 661 327 633 329 b 590 332 547 333 503 334 b 518 426 536 518 556 609 b 562 636 544 661 516 664 b 487 666 459 645 451 617 b 427 523 408 429 394 333 b 372 333 350 332 328 331 b 341 416 356 500 367 584 b 378 661 269 659 254 593 b 233 504 218 414 206 323 b 168 319 129 315 91 310 b 67 307 65 270 92 273 b 129 278 165 281 202 284 b 199 258 196 231 193 204 b 151 201 110 196 68 189 b 45 184 43 147 69 152 b 109 159 150 163 190 166 b 186 110 183 55 184 -1 b 184 -34 186 -67 189 -100 b 193 -133 195 -169 217 -194 b 232 -213 261 -205 272 -185 b 288 -153 288 -118 290 -83 b 292 -52 294 -21 296 10 b 298 64 303 118 308 172 b 317 172 326 172 334 173 b 348 173 362 174 375 174 b 369 109 365 43 364 -22 b 364 -57 364 -93 366 -128 b 369 -161 370 -197 387 -227 b 398 -243 424 -233 431 -219 b 447 -186 448 -149 452 -113 b 456 -79 459 -44 462 -10 b 467 53 473 116 481 178 b 521 179 561 181 600 182 b 612 182 624 189 627 201 b 629 211 622 224 610 223 b 569 222 528 220 486 218 b 490 243 493 269 497 294 b 539 293 581 291 623 289 z m 379 214 b 365 213 350 212 335 212 b 328 211 320 211 312 211 b 315 238 319 265 323 292 b 345 293 367 293 389 294 b 385 267 382 240 379 214 z"},",":{"x_min":0,"x_max":236,"ha":236,"o":"m 160 120 b 134 130 104 114 92 91 b 67 44 43 -12 52 -65 b 57 -92 94 -83 107 -69 b 140 -34 159 16 181 59 b 192 82 185 111 160 120 z"},"n":{"x_min":0,"x_max":462,"ha":462,"o":"m 457 192 b 443 155 429 117 410 82 b 401 66 392 46 379 33 b 360 15 354 31 350 49 b 343 82 338 113 336 146 b 334 187 337 227 336 267 b 334 326 329 459 240 451 b 169 445 141 349 125 291 b 116 261 109 230 103 198 b 103 202 103 206 103 210 b 101 279 106 349 106 418 b 105 483 7 465 -3 413 b -17 339 -17 261 -10 187 b -7 150 -3 112 4 75 b 11 38 22 6 40 -27 b 59 -61 116 -28 113 4 b 113 7 113 10 112 13 b 113 15 114 17 114 19 b 114 61 125 102 133 144 b 142 186 151 228 163 270 b 173 307 185 342 204 375 b 208 383 212 390 218 397 b 218 397 226 407 228 406 b 229 406 229 402 230 401 b 238 388 236 363 236 348 b 237 269 223 188 231 108 b 235 71 248 29 279 5 b 302 -13 339 -27 368 -18 b 407 -5 427 36 444 70 b 463 109 477 149 492 190 b 500 212 464 211 457 192 z"},"h":{"x_min":0,"x_max":521,"ha":521,"o":"m 514 195 b 498 159 483 122 463 88 b 452 71 442 54 428 39 b 418 28 406 20 404 39 b 400 79 394 118 393 157 b 391 200 392 244 389 286 b 385 329 380 373 362 412 b 349 441 318 464 286 454 b 253 445 229 411 211 384 b 191 352 177 318 164 283 b 150 243 138 202 128 161 b 128 162 128 163 128 165 b 123 219 120 274 118 328 b 118 330 118 331 118 333 b 168 417 215 504 250 596 b 272 651 293 709 300 769 b 305 815 301 870 270 907 b 234 948 177 955 132 924 b 80 889 53 826 35 768 b 17 710 10 649 3 589 b -5 524 -8 459 -8 393 b -8 322 -5 252 3 181 b 7 144 12 107 20 70 b 23 54 26 39 31 23 b 37 5 46 -10 54 -28 b 73 -70 132 -45 133 -5 b 133 6 135 15 136 26 b 152 101 170 177 194 250 b 206 287 220 325 241 359 b 249 373 259 387 271 399 b 276 405 284 415 292 416 b 308 419 300 407 299 398 b 293 355 290 312 285 270 b 281 226 277 182 278 138 b 278 96 283 47 310 12 b 331 -14 376 -28 408 -18 b 448 -7 470 29 491 63 b 515 101 532 142 550 182 b 560 208 524 217 514 195 z m 130 659 b 135 708 142 757 155 804 b 160 823 164 845 176 861 b 185 873 203 886 219 881 b 259 866 260 801 256 767 b 251 713 232 659 213 609 b 186 540 153 474 117 409 b 117 493 122 576 130 659 z"},"z":{"x_min":0,"x_max":433,"ha":433,"o":"m 468 217 b 464 226 452 231 443 226 b 399 202 357 175 317 146 b 307 175 293 202 274 227 b 250 260 221 283 189 302 b 203 319 218 336 231 354 b 250 379 280 420 250 449 b 227 472 198 467 168 465 b 123 462 78 459 32 456 b 8 454 6 416 33 418 b 65 419 96 421 127 423 b 144 423 161 424 178 425 b 184 425 191 426 197 426 b 198 426 198 426 199 426 b 194 421 188 417 183 413 b 171 404 160 394 148 384 b 125 362 101 341 78 320 b 58 302 35 258 69 239 b 103 220 138 210 166 181 b 194 151 212 114 223 75 b 224 73 224 70 225 68 b 215 59 206 50 197 41 b 161 4 126 -37 96 -79 b 68 -120 43 -165 35 -214 b 29 -257 45 -299 94 -299 b 140 -300 192 -278 228 -250 b 322 -178 354 -60 339 54 b 336 73 333 92 328 110 b 368 140 410 168 454 191 b 463 196 471 206 468 217 z m 199 -163 b 184 -192 161 -222 132 -239 b 120 -246 96 -260 83 -247 b 71 -235 78 -209 82 -194 b 102 -112 165 -41 223 17 b 226 21 229 24 232 27 b 240 -38 229 -105 199 -163 z"},"B":{"x_min":0,"x_max":759,"ha":759,"o":"m 683 91 b 710 163 718 243 699 317 b 683 378 646 432 600 474 b 540 528 464 555 386 559 b 401 574 415 589 429 606 b 460 641 489 681 509 724 b 527 764 546 812 542 856 b 538 898 507 926 465 924 b 424 922 383 898 351 873 b 284 820 239 743 207 664 b 193 631 181 598 171 564 b 174 641 180 718 185 795 b 186 822 159 839 135 838 b 109 836 80 817 75 789 b 51 646 47 500 52 354 b 55 283 60 212 69 140 b 78 71 89 -3 122 -66 b 134 -88 172 -70 175 -50 b 186 20 178 92 174 162 b 170 233 167 303 167 374 b 167 378 167 382 167 386 b 168 394 170 402 171 409 b 181 408 191 410 200 413 b 211 417 222 422 232 428 b 307 459 391 464 464 428 b 419 398 378 362 341 322 b 296 275 251 223 222 164 b 196 110 188 46 206 -13 b 227 -78 286 -107 351 -115 b 420 -122 495 -107 555 -71 b 616 -34 658 25 683 91 z m 217 582 b 242 655 274 730 322 791 b 344 818 369 842 399 861 b 426 877 480 903 497 861 b 511 824 476 780 454 752 b 430 720 404 690 375 662 b 346 633 314 605 281 579 b 259 562 238 544 216 530 b 210 528 204 525 199 523 b 205 543 211 562 217 582 z m 485 -2 b 460 -16 435 -26 407 -31 b 360 -39 314 -34 279 1 b 243 38 243 93 259 139 b 281 197 326 245 368 289 b 409 332 454 372 505 402 b 578 345 613 256 593 160 b 583 112 565 68 532 33 b 520 20 501 7 485 -2 z"},"K":{"x_min":0,"x_max":785,"ha":785,"o":"m 414 -12 b 504 -71 626 -126 721 -46 b 732 -36 740 -22 733 -7 b 726 6 709 9 696 3 b 662 -12 619 -2 586 12 b 548 27 515 50 482 72 b 415 116 354 167 299 225 b 271 255 241 283 214 313 b 207 321 199 329 193 337 b 192 339 190 341 189 343 b 192 346 197 352 197 351 b 211 367 225 381 240 396 b 297 453 357 508 413 567 b 475 633 532 704 570 788 b 581 813 545 822 534 800 b 452 640 311 527 187 400 b 185 398 183 396 181 394 b 178 534 181 674 179 814 b 179 845 148 864 119 859 b 85 853 64 826 61 794 b 46 642 48 489 57 337 b 61 261 67 187 76 112 b 81 73 87 35 94 -4 b 99 -36 101 -85 133 -104 b 157 -119 196 -100 194 -69 b 194 -61 197 -50 198 -41 b 198 -33 198 -24 198 -16 b 198 2 197 21 196 39 b 195 77 192 114 190 152 b 189 172 188 192 188 212 b 196 197 206 183 216 169 b 270 98 339 36 414 -12 z"},"R":{"x_min":0,"x_max":665,"ha":665,"o":"m 336 55 b 377 27 420 0 464 -23 b 487 -34 510 -45 533 -54 b 560 -65 583 -69 612 -68 b 631 -67 653 -37 637 -19 b 629 -10 622 -2 612 5 b 603 12 592 17 582 23 b 561 34 540 47 520 60 b 481 85 443 113 407 143 b 351 188 298 237 245 285 b 319 333 387 393 444 459 b 482 503 519 550 544 603 b 565 649 585 712 560 760 b 534 810 483 817 434 793 b 389 771 353 733 324 691 b 260 597 222 484 198 373 b 198 372 198 372 198 371 b 189 366 180 361 171 356 b 171 502 186 646 203 791 b 207 821 192 850 159 852 b 128 855 93 831 86 800 b 54 639 46 472 52 309 b 54 229 60 150 73 71 b 79 30 86 -13 98 -53 b 103 -68 111 -92 125 -102 b 143 -114 166 -106 177 -88 b 184 -76 187 -59 188 -42 b 191 -39 193 -34 192 -29 b 187 34 193 99 202 162 b 244 124 289 88 336 55 z m 310 586 b 330 628 353 670 384 706 b 408 733 459 783 500 764 b 548 741 501 661 483 632 b 458 592 425 557 391 524 b 346 480 298 438 246 402 b 262 465 282 527 310 586 z"},"T":{"x_min":0,"x_max":605,"ha":605,"o":"m 367 286 b 370 210 376 133 388 58 b 392 27 419 -162 484 -100 b 507 -78 502 -28 502 2 b 502 38 500 74 498 111 b 493 183 491 255 490 328 b 487 473 497 616 502 761 b 502 770 499 778 495 785 b 541 791 587 797 633 799 b 666 802 699 802 733 801 b 759 800 804 805 824 785 b 842 768 877 794 860 811 b 841 830 818 836 791 838 b 757 841 723 842 690 841 b 622 839 554 832 487 823 b 419 814 352 802 285 793 b 250 788 215 783 180 780 b 150 777 112 768 85 784 b 65 796 36 765 57 753 b 81 738 106 737 134 738 b 166 740 197 743 229 747 b 283 754 336 762 389 770 b 386 765 385 760 384 755 b 360 601 360 442 367 286 z"},"P":{"x_min":0,"x_max":663,"ha":663,"o":"m 512 195 b 563 256 592 340 605 417 b 618 494 617 573 596 648 b 578 714 537 787 478 825 b 410 868 341 806 308 749 b 266 678 243 597 225 517 b 206 431 190 345 179 257 b 177 285 176 313 175 340 b 169 492 181 641 192 792 b 194 820 164 839 139 837 b 112 836 82 815 77 787 b 48 631 46 470 54 312 b 59 234 68 155 82 78 b 89 41 96 3 107 -33 b 116 -67 127 -109 160 -127 b 180 -139 206 -124 207 -101 b 208 -67 206 -33 202 1 b 204 128 217 254 239 378 b 252 449 266 520 285 589 b 303 650 325 721 369 770 b 390 793 426 810 454 787 b 476 769 484 730 492 704 b 510 646 516 584 514 523 b 514 522 514 521 514 521 b 454 479 403 428 357 373 b 315 320 253 244 301 175 b 322 146 358 133 393 133 b 441 134 482 160 512 195 z m 438 266 b 426 248 409 232 391 221 b 364 204 327 221 331 255 b 335 290 366 324 387 351 b 424 396 464 437 509 473 b 503 429 492 386 477 345 b 467 319 455 289 438 266 z"},"|":{"x_min":0,"x_max":234,"ha":234,"o":"m 170 245 b 172 389 180 532 184 676 b 185 724 109 712 102 672 b 78 525 60 378 54 230 b 48 85 46 -63 66 -206 b 77 -281 186 -254 184 -186 b 180 -42 169 101 170 245 z"},"t":{"x_min":0,"x_max":285,"ha":285,"o":"m 281 224 b 252 163 223 101 179 49 b 172 41 157 19 147 27 b 139 33 136 53 133 61 b 124 92 122 126 119 159 b 113 233 111 306 112 380 b 113 424 116 468 118 513 b 125 512 132 512 138 512 b 161 511 174 549 148 550 b 138 550 129 551 119 551 b 119 568 119 585 119 602 b 115 667 17 651 7 596 b 5 580 2 564 1 548 b -6 547 -12 547 -19 546 b -42 544 -44 508 -18 510 b -13 510 -8 510 -3 511 b -6 469 -7 427 -7 385 b -9 316 -6 248 3 181 b 11 117 22 38 72 -8 b 119 -52 179 -11 212 29 b 256 84 287 148 316 212 b 328 237 292 246 281 224 z"},"M":{"x_min":0,"x_max":962,"ha":962,"o":"m 179 -63 b 189 -52 194 -39 196 -25 b 199 -22 200 -19 201 -15 b 212 162 238 340 281 512 b 291 553 303 594 318 634 b 332 673 348 715 374 747 b 378 753 384 762 391 765 b 402 771 407 763 411 753 b 418 735 419 714 420 695 b 423 650 427 606 429 561 b 434 459 434 356 443 255 b 449 179 563 208 561 275 b 561 281 561 288 560 294 b 566 407 585 519 620 627 b 636 677 654 733 690 774 b 695 780 706 794 716 791 b 724 789 729 773 731 766 b 740 740 744 713 747 686 b 772 444 723 200 746 -42 b 752 -106 756 -184 797 -237 b 818 -264 856 -271 885 -250 b 912 -230 918 -195 907 -164 b 902 -151 892 -146 882 -146 b 880 -138 879 -130 878 -121 b 876 -92 873 -63 872 -34 b 869 28 868 90 868 152 b 869 272 871 393 863 513 b 860 572 854 632 840 690 b 829 736 808 792 767 820 b 667 888 607 721 584 653 b 566 599 552 544 541 489 b 537 521 531 553 525 585 b 515 634 505 682 488 729 b 475 763 450 808 408 810 b 367 812 337 770 319 738 b 296 697 279 652 265 607 b 234 514 214 417 198 320 b 194 292 189 264 185 235 b 183 282 180 328 178 375 b 174 522 182 670 194 817 b 196 846 165 865 139 864 b 111 862 79 841 74 811 b 51 659 46 507 53 353 b 57 278 64 201 77 126 b 84 90 90 54 100 18 b 109 -13 119 -58 154 -71 b 163 -74 173 -70 179 -63 z"},"g":{"x_min":0,"x_max":452,"ha":452,"o":"m 453 220 b 425 192 395 165 364 138 b 360 234 351 330 352 425 b 352 456 322 473 294 469 b 278 466 265 458 255 446 b 213 470 159 474 116 452 b 32 411 -12 322 -24 232 b -30 187 -31 142 -22 96 b -15 55 3 8 43 -11 b 127 -51 183 46 206 110 b 221 154 229 200 240 246 b 240 248 241 249 241 251 b 246 183 254 115 260 46 b 236 23 212 0 189 -25 b 154 -65 122 -109 99 -157 b 76 -205 57 -262 72 -315 b 84 -360 125 -397 173 -396 b 223 -394 268 -352 296 -313 b 360 -219 368 -93 368 17 b 368 42 367 68 366 93 b 406 128 445 162 481 200 b 500 219 470 238 453 220 z m 190 204 b 182 172 174 140 162 109 b 157 95 151 81 143 68 b 138 58 125 36 116 37 b 98 38 90 80 87 94 b 80 125 80 156 82 188 b 84 219 89 250 98 281 b 102 293 107 304 113 314 b 120 327 126 337 132 345 b 147 363 165 386 192 380 b 207 377 220 368 231 357 b 216 307 202 256 190 204 z m 263 -214 b 258 -254 251 -302 223 -333 b 187 -372 135 -354 116 -309 b 95 -260 119 -202 142 -158 b 163 -115 192 -77 224 -42 b 237 -27 250 -13 264 0 b 269 -71 271 -142 263 -214 z"},"j":{"x_min":0,"x_max":198,"ha":198,"o":"m 198 220 b 173 194 145 169 117 145 b 115 238 109 332 106 425 b 105 455 76 473 48 469 b 18 464 -6 437 -7 406 b -9 299 2 192 8 85 b 9 74 9 62 10 50 b -14 28 -38 5 -60 -20 b -96 -60 -128 -103 -152 -151 b -176 -198 -196 -254 -184 -307 b -175 -351 -140 -390 -95 -395 b -44 -401 4 -361 33 -323 b 104 -232 112 -104 117 7 b 118 38 118 68 118 99 b 155 131 192 164 227 200 b 246 219 216 238 198 220 z m 7 -221 b 2 -262 -6 -314 -40 -341 b -81 -373 -128 -345 -141 -301 b -156 -252 -134 -197 -111 -155 b -89 -111 -59 -72 -26 -36 b -14 -23 -1 -10 12 3 b 13 -24 14 -50 14 -77 b 14 -125 14 -174 7 -221 z m 36 506 b 45 503 54 508 59 514 b 59 515 60 516 61 516 b 86 542 110 572 126 604 b 137 625 156 664 134 684 b 110 704 78 682 61 664 b 52 655 45 645 39 635 b 34 647 28 659 19 669 b -1 689 -29 676 -37 651 b -53 597 -19 523 36 506 z"},"i":{"x_min":0,"x_max":249,"ha":249,"o":"m 245 217 b 224 173 206 128 181 86 b 172 70 156 38 135 34 b 118 31 114 58 112 70 b 102 117 103 170 102 218 b 101 275 108 332 104 389 b 100 453 2 439 -6 383 b -18 313 -17 240 -12 169 b -10 133 -5 95 5 60 b 13 32 28 3 54 -13 b 79 -30 111 -35 139 -21 b 165 -9 183 18 199 41 b 234 91 254 149 280 205 b 291 229 256 238 245 217 z m 37 480 b 46 477 55 481 60 488 b 61 489 62 489 62 490 b 88 516 111 546 128 578 b 139 599 158 638 135 658 b 112 678 80 655 63 638 b 54 629 46 619 40 609 b 35 621 29 633 20 642 b 0 663 -28 650 -35 624 b -51 570 -17 496 37 480 z"},"y":{"x_min":0,"x_max":475,"ha":475,"o":"m 476 220 b 450 194 423 169 395 145 b 393 238 386 332 383 425 b 383 455 354 473 326 469 b 296 464 271 437 271 406 b 271 406 271 406 271 405 b 256 341 242 277 228 213 b 221 184 198 61 148 83 b 127 92 116 125 110 145 b 101 172 100 201 98 229 b 95 293 102 358 97 423 b 92 483 0 471 -8 418 b -19 336 -14 249 4 168 b 12 135 26 101 51 78 b 76 52 105 44 140 42 b 172 40 199 50 217 77 b 236 103 247 135 256 167 b 263 192 269 218 275 244 b 278 191 282 138 286 85 b 286 74 287 62 287 50 b 263 28 239 5 217 -20 b 181 -60 149 -103 125 -151 b 102 -198 82 -254 93 -307 b 103 -351 137 -390 183 -395 b 234 -401 282 -361 311 -323 b 381 -232 390 -104 394 7 b 395 38 396 68 395 99 b 433 131 470 164 505 200 b 523 219 493 238 476 220 z m 285 -221 b 279 -262 272 -314 237 -341 b 197 -373 150 -345 136 -301 b 121 -252 144 -197 166 -155 b 189 -111 219 -72 252 -36 b 264 -23 277 -10 290 3 b 291 -24 291 -50 291 -77 b 291 -125 291 -174 285 -221 z"},"@":{"x_min":0,"x_max":754,"ha":754,"o":"m 544 656 b 392 708 238 608 153 488 b 64 360 11 172 85 25 b 122 -51 188 -103 272 -118 b 365 -135 459 -102 537 -52 b 562 -36 538 -5 514 -20 b 456 -57 388 -84 317 -80 b 252 -77 192 -48 152 4 b 67 114 87 273 145 391 b 196 495 298 615 426 611 b 482 609 539 587 573 541 b 609 493 621 429 615 370 b 609 310 581 234 532 200 b 526 196 523 194 520 196 b 512 202 507 214 504 226 b 492 265 496 307 499 346 b 500 366 483 382 465 387 b 459 396 451 405 442 410 b 414 427 377 422 349 407 b 286 373 242 308 227 239 b 221 208 220 173 241 148 b 272 111 325 123 358 149 b 372 160 385 173 397 186 b 407 143 430 106 476 93 b 571 67 644 176 675 250 b 734 393 710 598 544 656 z m 326 217 b 327 216 327 216 327 215 b 327 214 327 216 326 217 z m 336 263 b 343 284 355 303 371 320 b 374 323 378 328 384 332 b 369 308 353 284 336 263 z"},".":{"x_min":0,"x_max":159,"ha":159,"o":"m 108 30 b 111 39 104 49 95 51 b 85 53 73 47 69 38 b 61 22 57 4 51 -12 b 45 -29 63 -41 77 -39 b 94 -36 105 -20 102 -4 b 100 3 101 3 102 11 b 104 17 106 23 108 30 z"},"p":{"x_min":0,"x_max":500,"ha":500,"o":"m 504 221 b 479 204 451 192 422 182 b 425 202 425 221 425 241 b 424 302 407 371 360 413 b 341 430 318 443 292 440 b 264 438 239 422 221 401 b 185 356 168 291 151 236 b 139 193 128 149 120 105 b 116 219 121 333 119 446 b 117 516 7 501 0 441 b -17 309 -12 176 -3 44 b 2 -22 9 -88 22 -152 b 28 -181 35 -217 51 -242 b 67 -265 103 -271 118 -243 b 128 -223 128 -194 129 -172 b 130 -143 130 -114 128 -85 b 130 -70 133 -55 135 -40 b 143 12 151 64 162 115 b 173 166 186 217 202 266 b 210 289 219 312 228 334 b 238 356 248 382 269 394 b 327 428 330 335 330 302 b 329 253 326 204 314 157 b 313 154 312 151 312 148 b 267 134 220 115 194 75 b 167 34 182 -30 233 -45 b 261 -54 304 -42 327 -25 b 352 -6 373 22 386 51 b 400 79 409 110 416 141 b 454 153 492 168 526 191 b 548 207 527 236 504 221 z m 293 94 b 289 84 283 76 278 66 b 275 61 273 57 265 49 b 262 46 258 42 255 39 b 254 38 250 34 249 33 b 244 30 235 26 236 25 b 231 27 228 37 228 41 b 226 52 232 62 239 70 b 254 86 276 95 297 103 b 296 100 294 97 293 94 z"},"X":{"x_min":0,"x_max":675,"ha":675,"o":"m 53 -10 b 39 -33 76 -42 88 -22 b 131 46 160 121 193 194 b 219 249 246 303 275 356 b 338 215 418 79 508 -46 b 553 -107 655 -31 616 33 b 536 166 444 294 376 436 b 368 453 359 471 351 489 b 417 600 493 709 595 786 b 618 802 596 833 573 816 b 476 743 406 644 341 542 b 338 538 336 534 333 530 b 315 570 297 611 280 652 b 249 723 216 800 161 857 b 140 879 103 857 109 828 b 127 751 157 677 183 602 b 206 535 229 466 256 400 b 218 331 182 260 149 188 b 119 121 93 52 53 -10 z"},"*":{"x_min":0,"x_max":303,"ha":303,"o":"m 238 568 b 225 568 212 568 200 567 b 210 575 222 582 234 588 b 257 600 247 636 222 623 b 204 614 188 604 173 592 b 173 597 174 603 175 609 b 178 636 137 635 134 612 b 133 602 132 593 132 583 b 120 596 109 609 98 622 b 83 639 52 617 66 599 b 76 586 86 572 97 560 b 87 558 78 557 68 556 b 45 553 43 517 69 520 b 81 522 94 523 106 524 b 94 510 83 494 72 479 b 56 458 85 439 100 458 b 110 472 120 486 131 499 b 132 487 133 474 135 462 b 139 438 175 447 173 468 b 173 475 172 482 172 488 b 181 482 191 475 201 470 b 221 458 250 490 229 502 b 214 510 201 519 188 529 b 202 530 215 530 229 530 b 252 530 265 568 238 568 z"},"Y":{"x_min":0,"x_max":575,"ha":575,"o":"m 497 53 b 513 108 519 166 522 222 b 525 282 526 341 525 400 b 525 465 524 530 520 595 b 517 664 516 735 498 801 b 491 825 462 833 441 826 b 416 818 401 798 398 772 b 398 767 398 762 397 757 b 385 673 368 590 343 510 b 331 470 318 430 300 393 b 291 375 281 360 266 346 b 257 338 244 325 231 324 b 209 322 198 370 193 386 b 182 424 179 463 176 502 b 170 591 174 681 171 771 b 170 803 139 822 110 817 b 77 811 53 783 51 751 b 48 670 51 588 58 507 b 63 436 71 346 118 288 b 142 259 174 241 212 246 b 248 250 278 275 299 304 b 338 362 363 432 382 499 b 391 528 399 557 405 587 b 408 547 410 506 412 466 b 414 434 415 402 416 370 b 415 369 413 368 411 367 b 337 298 276 214 236 121 b 202 43 174 -92 289 -114 b 399 -136 469 -40 497 53 z m 254 -34 b 237 9 255 64 272 104 b 306 186 356 260 418 323 b 420 271 421 218 420 166 b 420 90 416 -10 349 -61 b 317 -85 269 -73 254 -34 z"},"c":{"x_min":0,"x_max":343,"ha":343,"o":"m 340 222 b 304 163 271 100 221 50 b 201 30 177 10 148 27 b 124 40 114 68 107 93 b 89 157 88 234 103 300 b 105 310 107 319 110 329 b 112 333 113 337 114 342 b 114 340 119 353 120 355 b 125 365 129 375 135 385 b 141 396 142 397 151 406 b 155 410 156 415 163 411 b 170 408 175 399 178 392 b 185 377 186 358 188 341 b 190 314 230 324 229 348 b 228 391 220 449 173 464 b 99 487 37 415 9 357 b -32 276 -34 169 -9 82 b 3 41 24 -6 62 -29 b 105 -55 150 -39 190 -17 b 279 31 325 127 375 210 b 388 233 352 242 340 222 z"},"!":{"x_min":0,"x_max":218,"ha":218,"o":"m 166 407 b 164 464 161 521 152 577 b 148 605 146 634 137 660 b 133 670 128 681 120 689 b 112 697 105 697 94 699 b 88 700 78 696 75 691 b 74 690 74 690 73 689 b 69 683 66 674 70 667 b 64 567 63 465 60 364 b 57 255 47 145 51 37 b 52 8 79 -10 106 -5 b 137 0 156 25 159 55 b 171 171 169 290 166 407 z m 111 -38 b 93 -41 79 -54 74 -71 b 66 -95 64 -131 74 -155 b 89 -194 144 -176 153 -141 b 159 -116 157 -83 149 -59 b 144 -42 126 -35 111 -38 z"},"/":{"x_min":0,"x_max":544,"ha":544,"o":"m 419 674 b 386 645 363 608 341 570 b 322 536 303 502 285 467 b 251 400 219 331 190 262 b 160 191 132 119 106 46 b 93 10 81 -27 70 -64 b 64 -81 60 -98 56 -116 b 54 -125 51 -136 50 -145 b 49 -153 52 -162 51 -168 b 47 -194 79 -194 90 -176 b 94 -170 102 -164 107 -157 b 113 -148 118 -139 123 -130 b 131 -113 140 -97 147 -80 b 163 -47 178 -14 192 20 b 222 90 252 160 284 229 b 315 297 348 366 384 432 b 401 464 419 496 437 528 b 458 563 481 596 492 635 b 504 677 448 700 419 674 z"},"[":{"x_min":0,"x_max":361,"ha":361,"o":"m 278 -142 b 266 -142 249 -147 238 -146 b 233 -145 228 -139 224 -133 b 208 -111 199 -83 192 -57 b 175 6 171 72 167 136 b 159 276 171 415 181 554 b 183 590 187 625 193 661 b 195 672 192 698 200 707 b 205 713 228 713 238 712 b 260 712 274 747 247 749 b 218 752 186 750 162 732 b 130 709 117 664 106 628 b 81 548 70 463 61 380 b 52 296 48 210 51 125 b 54 43 60 -44 85 -122 b 98 -162 118 -206 154 -230 b 201 -262 262 -243 300 -206 b 321 -186 311 -141 278 -142 z"},"6":{"x_min":0,"x_max":452,"ha":452,"o":"m 172 -121 b 270 -168 390 -83 401 20 b 407 74 371 113 324 134 b 273 156 213 153 164 128 b 164 128 163 128 163 127 b 156 231 192 347 228 435 b 245 477 265 519 289 557 b 300 574 313 589 326 604 b 332 611 339 619 346 625 b 349 628 355 633 358 635 b 364 640 358 640 369 636 b 385 630 408 656 390 666 b 286 724 197 583 155 506 b 100 403 62 287 52 170 b 43 65 68 -71 172 -121 z m 176 91 b 211 108 251 112 288 100 b 322 89 360 64 355 23 b 351 -10 325 -40 293 -49 b 261 -58 237 -48 217 -24 b 191 9 175 47 168 88 b 170 89 173 89 176 91 z"},"r":{"x_min":0,"x_max":376,"ha":376,"o":"m 371 213 b 357 169 344 125 326 82 b 318 62 308 42 298 23 b 292 13 274 -21 258 -16 b 247 -13 244 19 243 28 b 241 50 241 72 242 94 b 243 144 248 194 249 244 b 250 292 191 293 162 267 b 161 267 161 267 160 267 b 141 254 106 228 83 243 b 96 265 104 290 111 314 b 120 350 127 390 124 427 b 121 457 112 489 80 499 b 35 512 -4 469 -25 435 b -58 378 -58 278 -14 226 b 0 210 16 199 37 195 b 53 192 67 196 83 198 b 105 201 124 207 143 216 b 136 159 133 101 141 44 b 148 -11 181 -76 247 -62 b 304 -49 330 -6 352 44 b 375 98 391 154 406 211 b 412 234 377 232 371 213 z m 73 333 b 69 317 65 300 60 284 b 57 294 55 304 54 314 b 50 347 50 402 76 424 b 86 408 75 344 73 333 z"},"2":{"x_min":0,"x_max":544,"ha":544,"o":"m 62 -157 b 122 -192 185 -167 237 -125 b 249 -124 260 -123 272 -122 b 329 -118 387 -116 444 -110 b 470 -107 473 -65 443 -68 b 391 -73 339 -75 287 -78 b 299 -64 311 -51 321 -38 b 380 37 422 120 453 210 b 484 297 505 399 488 491 b 474 567 405 649 320 632 b 229 613 143 504 177 411 b 185 388 223 405 216 427 b 191 495 257 585 327 593 b 409 602 419 493 413 436 b 405 366 382 295 356 230 b 331 166 297 101 257 48 b 211 -15 162 -72 86 -94 b 86 -94 86 -94 86 -94 b 74 -96 64 -102 57 -112 b 48 -125 46 -148 62 -157 z"},"{":{"x_min":0,"x_max":480,"ha":480,"o":"m 428 -179 b 424 -166 408 -157 394 -161 b 373 -166 350 -170 330 -160 b 311 -150 299 -132 289 -114 b 264 -67 253 -12 246 40 b 239 102 235 164 223 225 b 216 258 206 294 185 321 b 218 376 243 435 266 496 b 280 533 291 570 303 607 b 309 625 314 643 320 661 b 326 680 330 703 355 699 b 375 695 393 731 370 736 b 329 746 291 718 268 685 b 242 647 221 605 199 564 b 158 484 122 402 65 333 b 43 307 43 263 80 249 b 83 248 84 248 85 248 b 85 248 86 247 88 246 b 81 251 91 241 93 239 b 95 236 96 236 96 236 b 96 236 96 235 97 231 b 100 226 102 220 104 215 b 113 187 117 157 120 128 b 127 64 129 -3 146 -66 b 161 -123 191 -182 239 -219 b 288 -256 365 -260 413 -218 b 424 -208 433 -194 428 -179 z"},"9":{"x_min":0,"x_max":605,"ha":605,"o":"m 214 240 b 278 267 325 329 359 387 b 376 416 392 447 404 479 b 416 509 424 547 443 573 b 447 579 445 576 448 570 b 451 562 456 554 459 546 b 466 530 470 514 473 497 b 478 461 481 424 482 388 b 484 315 480 242 466 170 b 459 133 451 95 438 60 b 428 33 412 -5 389 -22 b 373 -35 351 -12 341 2 b 320 31 308 69 305 104 b 301 144 240 136 235 100 b 224 32 244 -44 298 -91 b 359 -143 438 -105 478 -47 b 518 12 535 83 545 152 b 556 224 558 298 550 371 b 543 440 527 515 498 579 b 487 602 471 627 441 624 b 424 622 411 611 400 598 b 387 611 372 623 357 630 b 328 644 290 641 260 632 b 200 612 147 568 111 517 b 71 461 39 387 53 316 b 68 241 147 211 214 240 z m 169 428 b 181 458 197 485 219 508 b 254 547 325 600 375 563 b 375 562 374 560 373 559 b 353 530 333 500 315 469 b 299 441 283 414 263 389 b 246 368 226 347 202 333 b 194 329 184 324 175 327 b 172 328 170 330 168 331 b 167 333 160 342 159 345 b 149 368 159 404 169 428 z"}," ":{"x_min":0,"x_max":289,"ha":289,"o":""},"I":{"x_min":0,"x_max":394,"ha":394,"o":"m 343 872 b 346 882 339 895 327 895 b 300 894 273 892 247 890 b 237 903 215 909 200 906 b 182 903 167 892 158 877 b 140 874 122 870 104 866 b 85 862 64 861 52 844 b 48 837 50 827 56 823 b 57 822 57 822 58 822 b 65 816 74 818 81 823 b 82 823 85 824 89 825 b 94 827 100 828 105 829 b 115 831 126 833 137 835 b 139 835 142 835 144 836 b 129 766 128 691 128 621 b 127 546 127 470 131 395 b 134 320 138 245 147 170 b 152 130 157 89 165 50 b 168 31 172 12 177 -6 b 182 -23 188 -36 198 -50 b 173 -58 148 -67 123 -73 b 104 -78 93 -107 118 -111 b 127 -112 133 -111 141 -108 b 142 -108 143 -107 143 -107 b 200 -97 257 -93 312 -79 b 329 -75 345 -62 344 -43 b 344 -26 327 -14 311 -18 b 295 -21 280 -25 265 -29 b 270 -12 273 4 273 22 b 274 42 274 62 273 81 b 273 118 270 154 268 191 b 265 267 261 344 259 421 b 257 496 256 572 258 647 b 259 714 263 783 255 849 b 276 851 296 852 317 853 b 329 853 340 860 343 872 z"},"H":{"x_min":0,"x_max":866,"ha":866,"o":"m 57 388 b 80 376 102 376 128 378 b 148 380 167 382 187 385 b 187 374 187 363 188 351 b 190 286 195 220 204 155 b 209 121 215 88 222 55 b 231 21 243 -9 259 -40 b 272 -65 304 -38 306 -21 b 313 46 309 113 307 180 b 305 247 306 313 307 380 b 307 386 307 392 308 398 b 341 401 375 404 409 407 b 484 413 559 415 634 414 b 635 401 635 388 636 374 b 638 302 640 229 644 157 b 648 87 651 5 703 -46 b 718 -61 744 -43 748 -27 b 756 8 755 42 755 78 b 754 113 754 148 755 184 b 755 254 755 324 753 394 b 753 399 753 404 753 408 b 765 407 778 406 790 405 b 814 403 828 442 800 445 b 784 446 768 448 752 449 b 750 501 749 554 750 606 b 751 676 750 747 759 816 b 762 844 748 871 717 873 b 689 875 653 854 649 824 b 639 747 631 672 631 595 b 631 548 632 501 633 454 b 568 455 502 452 437 448 b 394 445 351 442 309 437 b 313 551 322 664 323 778 b 324 811 290 831 260 826 b 224 820 203 791 199 757 b 188 647 185 535 186 424 b 179 423 171 422 164 421 b 137 418 106 409 80 421 b 62 430 38 398 57 388 z"},"4":{"x_min":0,"x_max":446,"ha":446,"o":"m 259 210 b 262 156 266 102 274 49 b 281 -8 287 -79 324 -125 b 346 -153 388 -128 388 -98 b 390 -39 390 18 388 77 b 386 136 383 196 383 256 b 384 374 393 492 396 610 b 397 638 369 657 342 656 b 314 654 284 633 278 604 b 257 489 253 370 257 253 b 228 238 197 224 167 213 b 145 204 114 196 102 222 b 91 245 94 276 95 300 b 100 415 140 525 138 640 b 137 665 98 656 98 633 b 100 500 39 370 52 237 b 63 121 173 165 259 210 z"},"D":{"x_min":0,"x_max":706,"ha":706,"o":"m 223 -23 b 307 -71 406 -51 478 9 b 552 71 595 156 624 246 b 652 335 662 433 653 526 b 644 615 623 720 565 791 b 513 855 425 881 352 838 b 269 789 224 689 194 602 b 188 584 183 566 177 548 b 180 620 185 692 189 765 b 190 793 161 812 135 811 b 108 809 75 788 71 759 b 53 625 46 489 52 353 b 55 288 60 222 70 157 b 75 124 80 89 88 56 b 96 25 104 -12 127 -36 b 148 -58 189 -37 188 -12 b 189 -8 190 -4 190 1 b 200 -8 211 -16 223 -23 z m 504 234 b 497 218 490 202 482 186 b 478 178 474 169 469 161 b 467 158 466 155 464 152 b 463 151 457 141 459 144 b 425 94 379 45 319 46 b 258 47 206 93 200 154 b 195 192 205 229 231 258 b 260 290 299 312 337 332 b 405 369 476 402 548 431 b 545 400 541 370 534 340 b 526 304 516 267 504 234 z m 216 538 b 238 612 265 688 313 750 b 333 777 360 804 393 814 b 428 826 460 811 483 783 b 506 755 518 718 527 682 b 536 645 542 607 546 569 b 549 539 551 508 550 477 b 468 444 386 408 309 366 b 263 341 213 311 177 271 b 176 295 175 319 174 343 b 181 409 197 474 216 538 z"},"^":{"x_min":0,"x_max":327,"ha":327,"o":"m 275 492 b 256 551 252 689 156 660 b 117 648 89 608 71 573 b 63 558 56 541 52 524 b 48 505 52 490 52 471 b 53 451 80 449 91 463 b 98 473 109 481 117 491 b 125 501 132 511 140 521 b 143 526 147 531 151 536 b 153 529 154 521 156 513 b 161 486 167 464 181 439 b 193 417 228 420 246 430 b 267 442 283 467 275 492 z m 142 568 b 139 570 140 573 142 568 z m 175 565 b 175 565 176 565 176 565 b 183 574 181 567 175 565 z"},"0":{"x_min":0,"x_max":499,"ha":499,"o":"m 97 288 b 104 283 111 279 118 275 b 104 215 95 152 98 90 b 102 17 124 -61 196 -94 b 272 -129 347 -76 387 -13 b 423 44 437 114 444 180 b 453 253 451 325 436 398 b 423 462 397 531 352 580 b 309 626 246 639 188 611 b 132 584 90 532 67 475 b 43 412 37 332 97 288 z m 108 470 b 127 514 161 558 207 577 b 256 598 308 573 334 528 b 359 482 362 420 365 369 b 368 315 365 260 357 206 b 349 158 339 106 320 61 b 311 42 302 24 287 9 b 278 0 272 -7 258 -2 b 212 12 210 83 210 122 b 210 172 218 222 227 272 b 242 278 255 287 267 299 b 285 318 255 336 239 319 b 238 318 236 317 235 316 b 243 383 145 379 129 320 b 129 319 129 318 128 316 b 124 319 120 322 116 326 b 77 363 89 426 108 470 z"},"F":{"x_min":0,"x_max":596,"ha":596,"o":"m 427 760 b 433 760 439 761 445 761 b 510 767 575 770 641 768 b 673 767 706 766 738 762 b 762 759 792 757 811 739 b 828 723 858 755 839 772 b 821 789 797 794 774 798 b 741 803 708 806 675 807 b 608 809 540 807 473 802 b 453 801 433 799 413 797 b 400 809 381 814 363 811 b 345 808 330 799 320 786 b 303 783 286 781 269 778 b 235 773 202 768 168 762 b 134 756 101 746 67 743 b 47 740 44 712 63 709 b 63 709 63 709 63 709 b 93 708 123 717 152 722 b 185 727 217 733 249 738 b 267 740 285 743 303 745 b 303 744 303 743 303 742 b 294 647 291 551 293 454 b 241 445 189 435 136 424 b 113 419 111 382 137 387 b 189 397 241 407 294 415 b 295 384 296 353 298 322 b 301 252 306 183 316 114 b 325 46 330 -33 372 -91 b 390 -116 428 -97 435 -72 b 454 -4 441 69 436 139 b 431 208 426 278 423 347 b 422 376 422 404 421 433 b 449 436 478 439 505 430 b 529 422 553 462 526 470 b 493 481 457 480 421 476 b 421 570 423 665 427 760 z"},"`":{"x_min":0,"x_max":190,"ha":190,"o":"m 136 525 b 136 554 133 583 132 611 b 131 645 133 680 134 715 b 135 738 111 750 91 747 b 69 743 51 724 51 701 b 49 658 49 615 57 573 b 61 552 68 532 78 515 b 87 499 96 494 114 492 b 129 490 148 514 136 525 z"},"k":{"x_min":0,"x_max":454,"ha":454,"o":"m 449 218 b 431 175 413 132 388 92 b 376 74 359 47 336 40 b 322 37 323 41 317 51 b 313 60 309 69 305 77 b 286 118 284 166 269 209 b 262 231 254 258 236 274 b 234 276 232 277 231 279 b 271 303 306 341 325 382 b 336 408 346 446 323 469 b 299 495 261 479 239 460 b 182 411 155 335 136 264 b 132 247 128 229 124 212 b 121 251 119 290 118 328 b 118 330 118 331 118 333 b 168 417 215 504 250 596 b 272 651 293 709 300 769 b 305 815 301 870 270 907 b 234 948 177 955 132 924 b 80 889 53 826 35 768 b 17 710 10 649 3 589 b -5 524 -8 459 -8 393 b -8 322 -5 252 3 181 b 7 144 12 107 20 70 b 23 54 26 39 31 23 b 37 5 46 -10 54 -28 b 73 -70 132 -45 133 -5 b 134 10 136 23 137 37 b 137 42 137 46 136 51 b 142 102 153 154 164 204 b 165 208 165 211 166 214 b 167 205 167 197 168 188 b 172 156 178 125 184 94 b 195 41 223 -21 287 -15 b 342 -10 380 14 411 59 b 443 104 464 155 485 205 b 495 231 459 240 449 218 z m 130 659 b 135 708 142 757 155 804 b 160 823 164 845 176 861 b 185 873 203 886 219 881 b 259 866 260 801 256 767 b 251 713 232 659 213 609 b 186 540 153 474 117 409 b 117 493 122 576 130 659 z m 188 299 b 196 323 205 347 217 370 b 229 393 245 417 266 434 b 301 460 295 412 286 392 b 267 354 229 316 188 299 z"},"u":{"x_min":0,"x_max":496,"ha":496,"o":"m 488 216 b 474 165 459 115 432 70 b 426 60 406 23 395 31 b 385 37 382 66 380 77 b 370 130 368 185 369 239 b 371 297 376 355 370 412 b 366 443 341 462 310 457 b 277 451 255 424 252 392 b 252 390 252 387 252 385 b 237 326 222 268 208 209 b 200 179 193 149 183 120 b 175 96 164 68 144 51 b 125 57 118 86 114 104 b 108 134 106 164 104 194 b 99 265 105 335 106 405 b 107 436 75 454 47 450 b 14 444 -6 417 -10 386 b -19 303 -19 216 -2 134 b 10 76 54 -37 134 -4 b 199 23 222 101 237 163 b 241 176 244 190 247 203 b 248 195 248 188 248 180 b 251 144 255 109 265 75 b 273 44 286 8 311 -13 b 365 -58 425 -11 456 35 b 492 89 509 151 526 213 b 532 238 495 237 488 216 z"},"]":{"x_min":0,"x_max":320,"ha":320,"o":"m 270 159 b 267 323 269 494 224 653 b 213 690 194 732 154 745 b 123 754 82 744 58 724 b 39 707 57 680 79 695 b 111 717 126 672 128 648 b 131 608 135 567 139 527 b 146 441 147 354 148 268 b 149 181 150 94 147 7 b 145 -32 144 -73 136 -112 b 134 -122 132 -132 129 -141 b 130 -138 122 -153 123 -153 b 120 -156 118 -158 116 -161 b 119 -157 118 -157 113 -161 b 110 -162 105 -163 104 -163 b 52 -170 30 -253 94 -261 b 187 -274 248 -179 258 -99 b 270 -14 271 73 270 159 z"},"U":{"x_min":0,"x_max":648,"ha":648,"o":"m 86 826 b 64 825 49 790 77 788 b 102 786 91 711 89 694 b 86 657 77 621 71 584 b 58 501 51 416 50 332 b 49 249 53 167 71 86 b 86 19 135 -68 212 -56 b 285 -61 324 12 351 69 b 385 142 406 221 424 299 b 436 351 448 403 459 456 b 462 410 465 364 469 319 b 475 243 481 168 491 92 b 496 58 499 16 512 -16 b 519 -33 529 -47 548 -49 b 561 -51 572 -46 580 -35 b 598 -8 597 27 598 59 b 598 93 597 127 596 161 b 593 232 589 302 586 372 b 580 513 578 653 575 794 b 574 826 543 845 513 840 b 480 834 456 806 455 773 b 454 760 454 747 453 734 b 443 604 420 474 392 346 b 377 277 359 209 335 143 b 323 111 310 78 291 50 b 280 31 265 6 242 9 b 235 19 227 29 220 40 b 213 52 209 67 205 81 b 195 114 191 149 188 183 b 180 265 179 346 180 429 b 181 508 188 587 189 667 b 190 705 189 745 172 780 b 156 813 121 827 86 826 z"},"o":{"x_min":0,"x_max":315,"ha":315,"o":"m 318 230 b 300 210 275 195 248 184 b 251 231 246 277 238 316 b 228 365 215 425 180 462 b 145 500 96 500 57 467 b 10 428 -9 362 -3 299 b -14 288 -21 272 -21 256 b -21 192 -25 125 -1 64 b 24 2 84 -38 149 -5 b 207 24 234 82 244 146 b 283 159 320 181 346 210 b 363 229 334 247 318 230 z m 121 71 b 123 71 122 68 121 71 z m 136 88 b 132 82 127 76 121 72 b 121 72 120 72 120 72 b 118 77 111 84 109 90 b 104 100 101 111 100 122 b 98 130 97 139 96 148 b 115 140 136 135 157 134 b 152 118 146 102 136 88 z m 180 327 b 180 281 175 235 168 190 b 167 184 166 178 165 172 b 140 173 117 181 98 195 b 97 195 96 196 95 197 b 95 223 96 250 97 276 b 97 307 66 325 38 321 b 37 350 42 379 54 404 b 71 438 109 473 144 439 b 174 410 181 367 180 327 z"},"N":{"x_min":0,"x_max":690,"ha":690,"o":"m 175 -61 b 191 -61 203 -51 208 -36 b 208 -36 209 -35 209 -35 b 210 -30 211 -27 210 -23 b 215 -5 212 17 209 37 b 215 168 241 297 268 424 b 282 493 298 562 321 628 b 340 684 369 761 423 792 b 434 799 449 805 461 796 b 473 788 475 767 478 754 b 485 724 486 692 487 661 b 489 588 482 515 478 443 b 468 301 459 157 467 15 b 471 -58 476 -153 531 -207 b 547 -223 566 -234 589 -230 b 611 -226 633 -209 638 -187 b 644 -166 635 -152 620 -143 b 618 -138 617 -132 615 -126 b 610 -113 606 -100 603 -86 b 598 -56 596 -23 594 8 b 590 77 589 147 590 216 b 590 286 591 355 591 425 b 592 495 594 566 586 636 b 579 697 568 766 523 811 b 479 855 422 847 379 807 b 334 766 308 708 287 653 b 263 589 247 522 233 455 b 217 384 202 311 191 239 b 187 281 184 322 181 364 b 173 504 180 643 192 782 b 195 810 164 829 140 827 b 111 826 83 805 77 777 b 43 630 47 476 58 327 b 63 252 72 177 85 104 b 91 71 98 39 110 8 b 121 -22 139 -59 175 -61 z"},"+":{"x_min":0,"x_max":310,"ha":310,"o":"m 245 223 b 231 223 218 222 204 222 b 205 249 205 276 206 304 b 208 361 113 348 107 299 b 104 270 102 241 101 211 b 98 211 95 211 92 210 b 78 208 65 207 55 196 b 39 177 64 158 81 172 b 88 173 94 174 101 175 b 102 168 102 161 103 154 b 106 109 108 56 132 17 b 149 -10 189 13 196 36 b 208 79 202 127 203 171 b 203 175 203 179 203 183 b 214 184 225 184 236 185 b 259 185 272 224 245 223 z"},"G":{"x_min":0,"x_max":678,"ha":678,"o":"m 360 -26 b 386 -8 406 19 424 45 b 444 74 462 105 478 136 b 490 158 500 181 510 203 b 509 196 509 189 509 182 b 506 122 503 62 503 2 b 503 -26 531 -43 557 -38 b 585 -34 609 -9 609 20 b 609 81 606 142 602 202 b 599 253 595 306 583 357 b 591 358 599 358 607 359 b 634 361 636 402 606 400 b 575 397 544 393 513 385 b 486 378 454 372 431 356 b 411 341 430 315 451 328 b 468 339 492 343 513 347 b 511 341 510 334 508 328 b 499 298 489 269 477 241 b 456 189 429 140 396 94 b 373 62 342 23 297 36 b 252 48 226 95 210 135 b 170 236 160 349 177 456 b 192 551 226 637 293 705 b 306 718 325 733 346 745 b 370 760 398 770 427 767 b 450 764 482 756 496 738 b 515 713 522 679 517 648 b 513 625 546 626 551 646 b 564 704 541 754 507 800 b 468 855 386 853 328 834 b 269 816 215 769 176 722 b 137 673 109 616 88 557 b 44 432 37 286 74 159 b 92 94 120 29 173 -14 b 225 -55 304 -64 360 -26 z"},"q":{"x_min":0,"x_max":470,"ha":470,"o":"m 360 55 b 376 72 392 90 408 107 b 439 140 471 173 500 208 b 517 228 490 242 474 227 b 425 182 379 132 333 83 b 333 100 334 118 335 135 b 339 227 352 318 355 410 b 356 439 328 457 302 456 b 289 455 275 450 263 441 b 220 469 162 475 116 452 b 32 411 -12 322 -24 232 b -30 187 -31 142 -22 96 b -15 55 3 8 43 -11 b 127 -51 183 46 206 110 b 208 118 210 125 213 133 b 211 73 213 12 221 -48 b 231 -111 245 -195 312 -224 b 375 -250 426 -174 432 -121 b 435 -88 427 -53 406 -27 b 396 -14 383 -2 369 6 b 361 11 352 15 343 18 b 341 19 337 20 333 21 b 333 23 333 25 333 27 b 334 28 336 30 337 31 b 345 39 352 47 360 55 z m 230 353 b 215 304 202 254 189 204 b 182 172 174 140 162 109 b 157 95 151 81 143 68 b 138 58 125 36 116 37 b 98 38 90 80 87 94 b 80 125 80 156 82 188 b 84 219 89 250 98 281 b 102 293 107 304 113 314 b 120 327 126 337 132 345 b 147 363 165 386 192 380 b 207 377 219 368 231 358 b 231 356 230 355 230 353 z m 375 -74 b 382 -89 385 -106 384 -123 b 383 -135 379 -158 368 -167 b 366 -164 363 -162 361 -160 b 357 -155 354 -151 351 -145 b 345 -130 341 -114 339 -98 b 337 -77 336 -55 335 -34 b 351 -43 365 -54 375 -74 z"},"d":{"x_min":0,"x_max":542,"ha":542,"o":"m 542 216 b 523 173 504 130 478 92 b 465 72 450 53 432 38 b 425 32 417 27 413 29 b 408 32 397 51 394 56 b 385 75 384 99 379 119 b 373 144 371 169 368 194 b 363 247 362 299 362 352 b 362 378 362 403 364 428 b 424 510 470 604 494 703 b 504 744 522 818 473 841 b 415 870 355 805 327 762 b 269 674 248 561 241 453 b 202 470 155 472 116 452 b 32 411 -12 322 -24 232 b -30 187 -31 142 -22 96 b -15 55 3 8 43 -11 b 127 -51 183 46 206 110 b 221 154 229 200 240 246 b 240 248 241 250 242 253 b 244 229 246 205 250 182 b 259 121 274 54 318 9 b 331 -4 346 -17 364 -19 b 380 -21 393 -17 408 -14 b 439 -5 461 12 482 36 b 524 85 549 145 573 204 b 582 227 550 235 542 216 z m 397 654 b 407 698 421 740 441 781 b 442 784 446 795 451 795 b 459 795 461 780 461 774 b 464 749 457 723 451 699 b 434 632 406 567 371 507 b 377 556 386 605 397 654 z m 190 204 b 182 172 174 140 162 109 b 157 95 151 81 143 68 b 138 58 125 36 116 37 b 98 38 90 80 87 94 b 80 125 80 156 82 188 b 84 219 89 250 98 281 b 102 293 107 304 113 314 b 120 327 126 337 132 345 b 147 363 165 386 192 380 b 207 377 220 368 231 357 b 216 307 202 256 190 204 z"},"1":{"x_min":0,"x_max":377,"ha":377,"o":"m 84 491 b 100 514 210 643 234 582 b 245 554 240 514 238 484 b 235 447 231 409 226 371 b 206 218 179 63 183 -91 b 184 -124 216 -144 246 -139 b 278 -133 306 -104 306 -71 b 305 68 318 205 324 343 b 326 410 333 485 312 550 b 297 598 254 653 198 636 b 137 619 86 558 53 507 b 40 488 72 474 84 491 z"},"5":{"x_min":0,"x_max":581,"ha":581,"o":"m 57 608 b 105 577 159 583 212 593 b 189 564 170 531 151 500 b 128 464 85 415 102 369 b 121 317 190 339 231 339 b 272 339 305 323 333 294 b 427 199 430 -2 290 -51 b 250 -65 209 -52 185 -19 b 152 26 175 85 194 130 b 205 158 166 169 155 144 b 122 70 99 -17 166 -80 b 229 -139 323 -138 392 -92 b 534 1 537 219 438 343 b 409 380 370 413 324 429 b 298 437 271 440 244 440 b 236 439 227 439 219 438 b 228 455 236 472 245 489 b 262 524 285 561 292 600 b 293 602 293 605 292 607 b 327 612 362 614 397 614 b 430 613 482 611 491 571 b 497 547 535 566 531 588 b 516 667 394 655 337 650 b 293 647 251 639 208 630 b 167 622 122 615 84 639 b 65 651 37 621 57 608 z"}}}
